{"title":"Justin Bieber - Confident ft. Chance The Rapper x264 AAC E-Subs ","uid":9544188,"size":68034697,"categoryP":"video","categoryS":"music_videos","magnet":"?xt=urn:btih:709ecaec0c4d0db0f63cd8d09042a5c38e4d6be8&amp;dn=Justin+Bieber+-+Confident+ft.+Chance+The+Rapper+x264+AAC+E-Subs+&amp;tr=udp%3A%2F%2Ftracker.openbittorrent.com%3A80&amp;tr=udp%3A%2F%2Fopen.demonii.com%3A1337&amp;tr=udp%3A%2F%2Ftracker.coppersurfer.tk%3A6969&amp;tr=udp%3A%2F%2Fexodus.desync.com%3A6969","seeders":4,"leechers":0,"uploader":"canc232","files":1,"time":1391097256,"description":"Justin Bieber - Confident ft. Chance The Rapper x264 AAC E-Subs [GWC]\n\nCOVER : &lt;a href=&quot;\nhttp://imageshack.com/a/img853/3511/tscz.jpg&quot; rel=&quot;nofollow&quot; target=&quot;_NEW&quot;&gt;\nhttp://imageshack.com/a/img853/3511/tscz.jpg&lt;/a&gt;\n\n\nTHUMBNAIL IMAGE : &lt;a href=&quot;\nhttp://img31.imageshack.us/img31/2470/q721.jpg&quot; rel=&quot;nofollow&quot; target=&quot;_NEW&quot;&gt;\nhttp://img31.imageshack.us/img31/2470/q721.jpg&lt;/a&gt;\n\n\nMEDIA INFO:\nGeneral \nFormat : MPEG-4 \nFormat profile : Base Media \nFile size : 64.9 MiB \nDuration : 6mn 5s \nOverall bit rate mode : Variable \nOverall bit rate : 1 490 Kbps \n\nVideo \nFormat : AVC \nFormat/Info : Advanced Video Codec \nFormat profile : &lt;a class=&quot;__cf_email__&quot; href=&quot;/cdn-cgi/l/email-protection&quot; data-cfemail=&quot;337e525a5d737f001d02&quot;&gt;[email&amp;#160;protected]&lt;/a&gt;&lt;script cf-hash='f9e31' type=&quot;text/javascript&quot;&gt;\n/* &lt;![CDATA[ */!function(){try{var t=&quot;currentScript&quot;in document?document.currentScript:function(){for(var t=document.getElementsByTagName(&quot;script&quot;),e=t.length;e--;)if(t[e].getAttribute(&quot;cf-hash&quot;))return t[e]}();if(t&amp;&amp;t.previousSibling){var e,r,n,i,c=t.previousSibling,a=c.getAttribute(&quot;data-cfemail&quot;);if(a){for(e=&quot;&quot;,r=parseInt(a.substr(0,2),16),n=2;a.length-n;n+=2)i=parseInt(a.substr(n,2),16)^r,e+=String.fromCharCode(i);e=document.createTextNode(e),c.parentNode.replaceChild(e,c)}}}catch(u){}}();/* ]]&gt; */&lt;/script&gt; \nFormat settings, CABAC : Yes \nFormat settings, ReFrames : 3 frames \nDuration : 6mn 5s \nBit rate : 1 403 Kbps \nMaximum bit rate : 4 127 Kbps \nWidth : 1 280 pixels \nHeight : 720 pixels \nDisplay aspect ratio : 16:9 \nFrame rate : 23.976 fps \nStream size : 61.1 MiB (94%) \nTitle : Justin Bieber - Confident ft. Chance The Rapper x264 AAC E-Subs [GWC]\n\nAudio \nFormat : AAC \nFormat profile : LC \nDuration : 6mn 5s \nBit rate mode : Variable \nChannel(s) : 2 channels \nSampling rate : 48.0 KHz \nStream size : 3.64 MiB (6%) \nLanguage : English \n\nText \nFormat : Timed Text \nDuration : 5mn 50s \nBit rate mode : Variable \nStream size : 3.30 KiB (0%) \nTitle : English Subtitle by Bieber \nLanguage : English ","torrent":{"xt":"urn:btih:709ecaec0c4d0db0f63cd8d09042a5c38e4d6be8","amp;dn":"Justin+Bieber+-+Confident+ft.+Chance+The+Rapper+x264+AAC+E-Subs+","amp;tr":["udp%3A%2F%2Ftracker.openbittorrent.com%3A80","udp%3A%2F%2Fopen.demonii.com%3A1337","udp%3A%2F%2Ftracker.coppersurfer.tk%3A6969","udp%3A%2F%2Fexodus.desync.com%3A6969"],"infoHash":"709ecaec0c4d0db0f63cd8d09042a5c38e4d6be8","infoHashBuffer":{"type":"Buffer","data":[112,158,202,236,12,77,13,176,246,60,216,208,144,66,165,195,142,77,107,232]},"announce":[],"urlList":[]}}